<?xml version="1.0" encoding="UTF-8" standalone="no"?>
<!-- Created with Inkscape (http://www.inkscape.org/) -->

<svg
   width="214.00664mm"
   height="203.94469mm"
   viewBox="0 0 214.00664 203.94469"
   version="1.1"
   id="svg1"
   inkscape:version="1.3.2 (091e20e, 2023-11-25)"
   sodipodi:docname="vega.svg"
   inkscape:export-filename="vega.png"
   inkscape:export-xdpi="96"
   inkscape:export-ydpi="96"
   xmlns:inkscape="http://www.inkscape.org/namespaces/inkscape"
   xmlns:sodipodi="http://sodipodi.sourceforge.net/DTD/sodipodi-0.dtd"
   xmlns="http://www.w3.org/2000/svg"
   xmlns:svg="http://www.w3.org/2000/svg">
  <sodipodi:namedview
     id="namedview1"
     pagecolor="#ffffff"
     bordercolor="#000000"
     borderopacity="0.25"
     inkscape:showpageshadow="2"
     inkscape:pageopacity="0.0"
     inkscape:pagecheckerboard="true"
     inkscape:deskcolor="#d1d1d1"
     inkscape:document-units="mm"
     inkscape:zoom="0.81169658"
     inkscape:cx="391.15601"
     inkscape:cy="372.6762"
     inkscape:window-width="1512"
     inkscape:window-height="840"
     inkscape:window-x="0"
     inkscape:window-y="38"
     inkscape:window-maximized="1"
     inkscape:current-layer="layer1"
     inkscape:export-bgcolor="#ffffffff" />
  <defs
     id="defs1">
    <clipPath
       clipPathUnits="userSpaceOnUse"
       id="clipPath10">
      <path
         id="path11"
         style="fill:#ff0000;fill-opacity:1;fill-rule:nonzero;stroke:none;stroke-width:0.348485"
         d="M -56.880966,-60.912247 V 143.03247 H 157.12534 V -60.912247 Z m 94.155155,87.170102 c 0.287203,3.35e-4 0.574257,0.0087 0.860687,0.03074 3.405596,0.262056 6.529459,2.123424 9.448458,3.567397 1.443162,0.900781 2.845104,1.853325 4.240398,2.814028 1.688532,-1.749829 3.785065,-2.635714 5.836395,-2.63484 4.350443,0.002 8.473433,3.939626 7.943135,11.807404 -0.161058,2.389314 0.534074,4.631386 1.559866,6.777732 2.788828,-0.255229 6.245488,0.574308 9.991788,3.024605 2.325317,1.520897 4.534397,3.176768 6.519986,5.070872 4.445741,5.03732 5.381287,10.150234 -0.246519,14.913105 -4.347124,2.141816 -7.043422,2.96332 -12.006436,1.362217 -3.254001,-1.203624 -6.278907,-2.802273 -9.00005,-4.857682 -3.242841,-2.569236 -6.223465,-5.342629 -8.508425,-8.629115 -1.158368,0.59972 -2.371604,1.121067 -3.672274,1.54402 -2.882959,0.564681 -5.699762,0.44971 -8.545972,-0.214503 -3.442714,-0.767706 -6.808258,-1.830737 -9.860029,-3.524237 -4.325163,-2.678211 -7.871056,-5.963572 -8.7259,-10.929779 -0.385108,-3.322695 -0.09137,-6.583822 0.934361,-9.797756 1.79981,-4.955758 4.75728,-8.999413 10.642795,-10.239189 0.862141,-0.01346 1.726132,-0.08649 2.587736,-0.08502 z" />
    </clipPath>
  </defs>
  <g
     inkscape:label="Layer 1"
     inkscape:groupmode="layer"
     id="layer1"
     transform="translate(1.5082056,-18.371412)">
    <path
       sodipodi:type="star"
       style="mix-blend-mode:darken;fill:#dc2273;fill-opacity:1;stroke-width:0.264583"
       id="path1"
       inkscape:flatsided="false"
       sodipodi:sides="5"
       sodipodi:cx="50.338982"
       sodipodi:cy="51.597458"
       sodipodi:r1="112.51213"
       sodipodi:r2="56.256065"
       sodipodi:arg1="0.93624353"
       sodipodi:arg2="1.5645621"
       inkscape:rounded="0"
       inkscape:randomized="0"
       d="M 117.03813,142.20763 50.689692,107.85243 -15.225239,143.0322 -3.0543006,69.314746 -56.881087,17.497069 16.989408,6.292372 49.637556,-60.912486 83.121094,5.8800868 157.12554,16.162877 103.94902,68.647655 Z"
       inkscape:transform-center-x="0.21675337"
       inkscape:transform-center-y="-10.5376"
       transform="translate(55.372881,79.283898)" />
    <path
       sodipodi:type="star"
       style="fill:#247599;stroke-width:0.264583;fill-opacity:1"
       id="path2"
       inkscape:flatsided="false"
       sodipodi:sides="5"
       sodipodi:cx="50.338982"
       sodipodi:cy="51.597458"
       sodipodi:r1="112.51213"
       sodipodi:r2="56.256065"
       sodipodi:arg1="0.93624353"
       sodipodi:arg2="1.5645621"
       inkscape:rounded="0"
       inkscape:randomized="0"
       d="M 117.03813,142.20763 50.689692,107.85243 -15.225239,143.0322 -3.0543006,69.314746 -56.881087,17.497069 16.989408,6.292372 49.637556,-60.912486 83.121094,5.8800868 157.12554,16.162877 103.94902,68.647655 Z"
       inkscape:transform-center-x="0.1581193"
       inkscape:transform-center-y="-8.3267845"
       transform="matrix(0.72949516,0,0,0.79019735,68.931188,90.41531)" />
  </g>
</svg>
